REM MD5 eaab1963c907d4c4ed741fbf56d28c35
FILE "Simple 1500 Series Vol. 4 - The Reversi (Japan).bin" BINARY
  TRACK 01 MODE2/2352
    INDEX 01 00:00:00
  TRACK 02 AUDIO
    INDEX 00 05:46:69
    INDEX 01 05:48:69
  TRACK 03 AUDIO
    INDEX 00 07:51:62
    INDEX 01 07:53:62
  TRACK 04 AUDIO
    INDEX 00 10:48:61
    INDEX 01 10:50:61
  TRACK 05 AUDIO
    INDEX 00 13:25:06
    INDEX 01 13:27:06
  TRACK 06 AUDIO
    INDEX 00 16:09:20
    INDEX 01 16:11:20
REM LEADOUT 19:03:37
